<?xml version="1.0" standalone="no"?>
<!DOCTYPE svg PUBLIC "-//W3C//DTD SVG 20010904//EN"
 "http://www.w3.org/TR/2001/REC-SVG-20010904/DTD/svg10.dtd">
<svg version="1.0" xmlns="http://www.w3.org/2000/svg"
 width="125.000000pt" height="125.000000pt" viewBox="0 0 125.000000 125.000000"
 preserveAspectRatio="xMidYMid meet">

<g transform="translate(0.000000,125.000000) scale(0.100000,-0.100000)"
fill="#000000" stroke="none">
<path d="M820 1116 c-66 -19 -106 -42 -131 -77 -26 -37 -29 -95 -5 -132 17
-25 17 -26 -26 -79 -54 -67 -85 -115 -93 -150 -4 -16 -11 -28 -16 -28 -12 0
-11 35 2 102 28 138 -77 295 -210 313 -84 11 -224 -24 -237 -60 -3 -8 3 -27
13 -42 11 -15 32 -58 48 -95 51 -123 100 -163 235 -194 105 -24 117 -31 144
-88 46 -97 43 -278 -7 -425 -16 -47 -30 -69 -47 -78 -14 -7 -38 -24 -55 -37
l-30 -25 150 0 150 0 -34 28 c-18 16 -53 34 -77 40 -42 11 -43 12 -33 38 42
111 62 313 39 393 -8 29 -7 37 7 48 38 27 66 25 180 -13 106 -36 116 -37 155
-26 24 7 62 26 85 43 24 16 57 34 74 40 l30 10 -65 64 c-124 123 -262 158
-345 89 -31 -26 -71 -102 -71 -134 0 -12 -11 -23 -30 -30 -30 -10 -30 -10 -30
28 0 63 123 231 194 265 77 37 106 86 106 182 0 49 -1 49 -70 30z m-450 -177
c0 -10 -9 -23 -20 -29 -35 -19 -22 -29 28 -23 67 8 78 -7 70 -94 -4 -38 -12
-48 -30 -37 -7 4 -23 8 -37 8 -36 1 -37 23 -2 41 47 24 39 37 -17 29 -38 -5
-52 -2 -65 11 -18 18 -23 60 -8 69 5 3 7 14 4 25 -4 16 1 18 36 18 33 0 41 -3
41 -18z m554 -203 c19 -29 8 -39 -31 -30 l-28 7 28 -30 c15 -16 27 -36 27 -44
0 -20 -20 -39 -42 -39 -10 0 -18 -4 -18 -10 0 -22 -26 -8 -39 21 -16 37 -9 46
24 31 31 -14 33 0 4 29 -26 26 -21 48 16 70 39 23 40 23 59 -5z"/>
</g>
</svg>
